<?xml version="1.0" encoding="UTF-8" standalone="no"?>
<svg
   xmlns:dc="http://purl.org/dc/elements/1.1/"
   xmlns:cc="http://creativecommons.org/ns#"
   xmlns:rdf="http://www.w3.org/1999/02/22-rdf-syntax-ns#"
   xmlns:svg="http://www.w3.org/2000/svg"
   xmlns="http://www.w3.org/2000/svg"
   xmlns:sodipodi="http://sodipodi.sourceforge.net/DTD/sodipodi-0.dtd"
   xmlns:inkscape="http://www.inkscape.org/namespaces/inkscape"
   version="1.0"
   width="936.000000pt"
   height="1174.000000pt"
   viewBox="0 0 936.000000 1174.000000"
   preserveAspectRatio="xMidYMid meet"
   id="svg2"
   inkscape:version="0.48.5 r10040"
   sodipodi:docname="logo.svg">
  <defs
     id="defs30" />
  <sodipodi:namedview
     pagecolor="#ffffff"
     bordercolor="#666666"
     borderopacity="1"
     objecttolerance="10"
     gridtolerance="10"
     guidetolerance="10"
     inkscape:pageopacity="0"
     inkscape:pageshadow="2"
     inkscape:window-width="956"
     inkscape:window-height="1057"
     id="namedview28"
     showgrid="false"
     inkscape:zoom="0.16081772"
     inkscape:cx="-537.38877"
     inkscape:cy="733.75"
     inkscape:window-x="0"
     inkscape:window-y="19"
     inkscape:window-maximized="0"
     inkscape:current-layer="svg2" />
  <metadata
     id="metadata4">
Created by potrace 1.11, written by Peter Selinger 2001-2013
<rdf:RDF>
  <cc:Work
     rdf:about="">
    <dc:format>image/svg+xml</dc:format>
    <dc:type
       rdf:resource="http://purl.org/dc/dcmitype/StillImage" />
    <dc:title></dc:title>
  </cc:Work>
</rdf:RDF>
</metadata>
  <g
     transform="translate(0.000000,1174.000000) scale(0.100000,-0.100000)"
     id="g6"
     style="fill:#a40000;fill-opacity:1;stroke-width:0;stroke-miterlimit:4;stroke-dasharray:none;"
     stroke="none"
     fill="#000000">
    <path
       d="M7810 11560 c-96 -4 -328 -11 -515 -15 -187 -4 -347 -9 -355 -10 -14 -3 -151 -6 -970 -20 -157 -3 -316 -8 -355 -10 -82 -5 -336 -13 -660 -20 -126 -3 -329 -7 -450 -10 -430 -10 -697 -15 -1230 -20 -297 -3 -643 -7 -770 -10 -126 -3 -369 -7 -540 -10 -499 -8 -919 -15 -949 -15 -23 0 -27 -4 -23 -19 3 -14 -17 -45 -69 -107 -40 -48 -70 -92 -66 -98 3 -6 7 -27 9 -46 1 -19 9 -78 17 -130 17 -114 28 -191 67 -500 16 -129 40 -316 54 -415 13 -99 31 -252 40 -340 43 -437 124 -1143 175 -1540 17 -132 42 -337 55 -455 48 -421 65 -567 85 -730 11 -91 34 -284 50 -430 17 -146 37 -314 45 -375 8 -60 26 -204 40 -320 14 -115 27 -221 30 -233 3 -13 22 -40 41 -60 27 -28 37 -33 44 -23 10 17 175 27 620 35 173 4 351 9 395 11 44 2 283 7 530 10 419 5 607 8 1040 20 94 3 276 7 405 10 129 3 312 7 405 10 249 7 590 14 925 20 162 3 468 10 680 15 212 5 547 13 745 16 244 5 362 11 367 18 4 6 7 22 7 36 -2 41 17 282 51 635 5 55 14 156 20 225 6 69 13 143 15 165 3 22 9 92 15 155 83 898 109 1164 125 1315 8 77 33 325 55 550 22 226 45 455 50 510 6 55 14 152 19 215 6 63 21 228 35 365 14 138 39 414 56 615 40 487 59 695 69 753 l8 47 -75 73 c-41 39 -84 81 -96 92 -29 28 -69 55 -81 53 -5 -1 -89 -4 -185 -8z m222 -85 c33 -31 78 -65 100 -76 22 -11 38 -22 35 -25 -4 -4 -460 -15 -1637 -39 -332 -7 -882 -21 -1330 -35 -173 -5 -459 -12 -635 -15 -176 -3 -369 -7 -430 -10 -60 -3 -281 -7 -490 -10 -209 -3 -465 -7 -570 -10 -104 -3 -444 -7 -755 -10 -311 -3 -599 -8 -640 -10 -168 -10 -659 -18 -713 -11 l-57 7 66 72 c36 40 69 72 73 72 3 0 11 4 18 8 11 7 388 21 868 31 235 6 415 8 1420 21 383 5 884 18 1160 30 66 3 302 7 525 10 381 5 644 12 770 20 78 5 1481 29 1979 33 l183 2 60 -55z m128 -144 c0 -5 -17 -20 -37 -33 -21 -14 -72 -55 -113 -92 l-75 -66 -89 0 c-79 0 -93 3 -115 23 -23 20 -24 20 -8 1 l18 -21 -213 -7 c-117 -3 -422 -8 -678 -11 -888 -10 -1650 -23 -2040 -36 -168 -5 -654 -10 -1080 -10 -426 -1 -914 -5 -1085 -10 -443 -12 -1485 -17 -1491 -7 -3 4 -13 8 -23 8 -19 0 -174 111 -166 119 8 7 389 18 1040 30 308 6 577 13 597 16 20 3 216 5 435 5 219 0 538 4 708 10 171 5 485 12 700 15 214 4 392 8 395 10 3 2 165 6 360 10 195 3 400 8 455 10 267 10 1134 27 1680 33 336 4 658 8 718 9 59 2 107 -1 107 -6z m46 -103 c-4 -46 -13 -157 -21 -248 -8 -91 -17 -205 -20 -255 -11 -161 -65 -757 -80 -885 -8 -69 -17 -152 -19 -185 -3 -33 -8 -91 -11 -130 -7 -89 -98 -1027 -125 -1285 -48 -471 -138 -1402 -170 -1760 -26 -292 -49 -542 -58 -619 l-7 -64 -70 58 c-43 35 -69 63 -67 73 2 9 -3 21 -11 27 -16 11 -18 -24 43 740 16 209 34 427 40 485 5 58 17 188 25 290 16 192 28 326 45 515 6 61 21 238 35 395 13 157 36 404 49 550 14 146 32 355 41 465 8 110 24 299 35 420 10 121 26 310 34 420 50 644 69 851 79 861 4 5 27 7 50 7 l42 -1 -37 11 c-21 6 -38 13 -38 17 0 4 24 23 53 43 28 20 74 59 102 87 27 27 53 50 58 50 5 0 6 -36 3 -82z m-7199 -110 c102 -78 97 -69 111 -213 7 -72 15 -141 18 -155 6 -27 43 -281 74 -510 17 -121 36 -293 65 -580 13 -134 26 -254 35 -325 5 -44 19 -170 30 -280 32 -302 60 -558 65 -580 3 -11 14 -101 25 -200 12 -99 32 -277 46 -395 31 -267 59 -520 79 -715 9 -82 20 -184 25 -225 6 -41 19 -154 30 -250 11 -96 29 -240 40 -320 11 -80 31 -239 45 -353 l25 -208 -31 -39 c-31 -38 -59 -61 -106 -87 -19 -9 -23 -9 -27 5 -13 45 -143 1056 -236 1837 -22 187 -49 414 -60 505 -11 91 -26 215 -34 275 -20 146 -91 743 -116 975 -11 102 -38 349 -60 550 -22 201 -62 541 -90 755 -47 375 -65 567 -52 579 10 11 46 -6 99 -46z m6933 -19 c0 -10 -7 -100 -15 -201 -8 -101 -19 -255 -25 -343 -5 -88 -14 -214 -20 -280 -18 -206 -69 -817 -75 -890 -3 -38 -24 -268 -46 -510 -22 -242 -49 -537 -59 -655 -10 -118 -26 -291 -34 -385 -43 -478 -80 -898 -116 -1345 -22 -272 -42 -499 -44 -505 -2 -5 -7 -1 -12 10 -4 11 -20 38 -35 61 -32 47 -101 213 -94 225 3 4 0 11 -6 15 -14 8 -8 165 36 829 8 127 24 383 35 570 24 411 36 603 55 880 31 447 46 659 60 890 8 132 19 303 25 380 5 77 17 248 25 380 45 697 50 770 61 847 l6 37 96 3 c180 5 182 5 182 -13z m-310 -26 c0 -22 -4 -97 -10 -169 -5 -71 -17 -259 -25 -419 -22 -422 -77 -1241 -131 -1960 -8 -110 -21 -315 -29 -456 -15 -256 -37 -609 -75 -1154 -10 -159 -22 -328 -25 -375 -13 -210 -18 -252 -29 -255 -6 -2 -324 -9 -706 -15 -621 -9 -1014 -17 -1765 -35 -463 -11 -1241 -23 -2060 -31 -324 -4 -657 -7 -738 -8 l-148 -3 -14 31 c-17 35 -49 358 -115 1136 -11 129 -31 350 -44 490 -60 627 -118 1285 -166 1885 -12 143 -27 323 -35 400 -23 223 -66 795 -64 847 l3 47 70 5 c68 5 638 13 1616 22 250 2 732 7 1070 10 338 3 885 11 1215 18 330 7 791 14 1024 15 234 1 426 3 428 4 1 2 171 4 378 6 l375 3 0 -39z m-6203 -86 c2 -44 62 -728 88 -1002 8 -88 22 -248 30 -355 8 -107 26 -319 40 -470 14 -151 34 -387 45 -525 11 -137 33 -392 49 -565 31 -327 53 -582 96 -1100 29 -347 30 -358 50 -576 9 -88 14 -183 11 -210 -4 -41 -94 -335 -96 -311 0 5 -9 68 -20 140 -11 73 -29 204 -40 292 -12 88 -30 228 -41 310 -17 135 -56 462 -79 670 -5 44 -18 157 -29 250 -11 94 -30 251 -40 350 -11 99 -34 288 -51 420 -17 132 -35 283 -40 335 -5 52 -14 133 -20 180 -9 72 -107 1000 -126 1185 -3 33 -16 140 -30 238 -33 250 -77 723 -70 752 7 28 23 31 171 33 l100 2 2 -43z m5892 -4736 c10 -6 25 -29 35 -53 27 -66 63 -138 97 -196 37 -63 32 -72 -41 -72 -25 0 -256 -6 -515 -14 -258 -8 -614 -17 -790 -21 -176 -3 -464 -10 -640 -15 -176 -6 -405 -10 -510 -9 -188 1 -514 -7 -603 -16 -26 -2 -326 -7 -667 -11 -341 -4 -658 -8 -705 -10 -422 -14 -1199 -19 -1210 -8 -9 10 9 92 34 154 8 19 24 68 36 108 13 40 25 74 29 76 12 7 819 23 1571 31 564 6 1040 14 1225 20 72 2 308 7 525 10 217 3 427 8 465 10 39 3 365 8 725 11 360 4 657 8 659 10 9 8 263 3 280 -5z m268 -410 l72 -59 -257 -6 c-141 -4 -401 -11 -577 -16 -284 -9 -514 -14 -1455 -35 -135 -3 -299 -7 -365 -10 -66 -3 -273 -7 -460 -10 -187 -3 -394 -8 -460 -10 -66 -2 -307 -7 -535 -10 -228 -3 -615 -10 -860 -15 -245 -5 -587 -12 -759 -16 l-315 -7 41 49 c70 84 62 81 228 88 231 10 1065 25 1720 31 325 3 626 7 670 10 44 3 159 7 255 10 96 3 227 7 290 10 172 7 450 13 1685 35 325 6 610 12 635 14 25 1 119 3 210 4 l165 2 72 -59z"
       id="path8"
       style="fill:#a40000;fill-opacity:1;stroke-width:0;stroke-miterlimit:4;stroke-dasharray:none" />
    <path
       d="M8085 11090 c3 -5 8 -10 11 -10 2 0 4 5 4 10 0 6 -5 10 -11 10 -5 0 -7 -4 -4 -10z"
       id="path10"
       style="fill:#a40000;fill-opacity:1;stroke-width:0;stroke-miterlimit:4;stroke-dasharray:none" />
    <path
       d="M7716 5725 c5 -12 -2 -15 -32 -15 -22 0 -169 -4 -329 -9 -159 -6 -396 -12 -525 -16 -129 -3 -287 -7 -350 -10 -63 -3 -236 -7 -385 -10 -282 -5 -335 -7 -1230 -30 -302 -8 -671 -17 -820 -20 -148 -3 -378 -7 -510 -10 -132 -3 -384 -7 -560 -10 -176 -3 -378 -7 -450 -10 -71 -2 -328 -7 -570 -10 -321 -5 -443 -9 -451 -18 -14 -14 -64 -268 -93 -467 -11 -74 -27 -182 -36 -240 -26 -173 -132 -813 -165 -995 -17 -93 -58 -330 -90 -525 -33 -195 -71 -411 -85 -480 -13 -69 -31 -174 -40 -235 -14 -100 -95 -576 -116 -685 -8 -44 -28 -176 -70 -469 -11 -80 -23 -149 -25 -153 -3 -4 -14 -8 -25 -8 -24 0 -25 -16 0 -29 22 -12 43 -61 70 -163 11 -40 45 -136 75 -212 58 -142 197 -532 194 -544 -1 -4 7 -25 16 -47 15 -33 20 -37 30 -25 6 8 21 21 33 27 36 21 340 33 963 38 322 3 662 8 755 10 523 12 1550 29 2440 40 716 9 1055 14 1635 25 305 5 810 12 1121 16 l566 6 36 34 c52 50 112 240 152 484 29 173 57 292 90 375 30 77 49 146 46 164 -1 8 3 17 9 21 8 5 2 39 -23 121 -35 112 -78 285 -92 364 -13 77 -110 364 -150 445 -27 54 -89 252 -105 335 -30 157 -98 373 -134 430 -18 29 -128 402 -142 480 -3 22 -15 73 -26 113 -17 65 -31 101 -73 197 -17 38 -79 252 -94 325 -7 30 -23 87 -35 125 -22 64 -38 123 -64 230 -26 110 -75 275 -92 311 -10 23 -37 108 -60 190 -22 82 -49 173 -60 203 -36 96 -92 302 -84 310 5 6 -27 41 -37 41 -5 0 -6 -7 -3 -15z m-46 -58 c0 -8 -11 -24 -25 -37 -14 -13 -25 -30 -25 -37 0 -8 -5 -11 -11 -7 -6 3 -47 6 -90 5 -57 -1 -88 3 -112 16 -23 12 -57 17 -122 17 -77 0 -99 -4 -151 -28 -85 -39 -96 -63 -98 -208 -1 -125 -8 -106 103 -282 31 -49 36 -64 27 -81 l-10 -22 -670 -12 c-369 -7 -727 -16 -796 -20 l-125 -7 -80 42 c-44 23 -91 45 -105 49 -14 4 -66 27 -116 51 -62 30 -129 52 -210 69 -65 14 -144 32 -174 40 -54 13 -101 20 -229 31 -36 3 -72 7 -80 10 -19 6 -443 5 -516 -2 -73 -6 -344 -49 -440 -70 -73 -15 -193 -52 -210 -64 -5 -3 -50 -21 -100 -39 -49 -18 -119 -43 -155 -57 -36 -13 -68 -24 -72 -24 -4 0 -44 -17 -90 -39 -82 -38 -85 -38 -238 -45 -85 -3 -345 -9 -577 -12 -443 -7 -442 -7 -451 35 -1 7 -7 86 -12 175 -5 88 -12 191 -16 228 -10 112 -25 105 214 112 114 4 266 9 337 11 72 3 438 9 815 15 377 5 786 12 910 15 1226 30 1787 41 2565 50 259 4 480 8 492 10 19 4 20 8 10 30 -13 28 -27 33 -27 10 0 -11 -12 -15 -50 -15 -28 0 -326 -6 -663 -14 -336 -8 -736 -17 -887 -20 -151 -4 -464 -10 -695 -16 -668 -15 -852 -19 -1335 -26 -250 -3 -617 -9 -815 -13 -198 -4 -481 -6 -630 -6 -254 0 -272 1 -297 20 -15 11 -28 23 -28 26 0 10 115 18 330 24 107 3 249 7 315 10 128 5 517 12 1120 20 204 3 462 7 575 10 113 3 311 7 440 10 129 3 303 8 385 10 83 3 377 10 655 15 278 6 677 15 886 21 210 6 557 14 770 18 214 4 433 8 487 9 75 2 97 -1 97 -11z m60 -2 c0 -24 67 -258 82 -288 11 -21 28 -78 39 -125 30 -137 35 -153 67 -232 26 -65 58 -173 103 -350 7 -25 29 -103 51 -175 21 -71 45 -159 53 -195 35 -159 74 -289 94 -314 4 -6 18 -48 30 -94 12 -46 29 -101 36 -123 8 -22 33 -111 55 -197 22 -86 67 -236 100 -332 58 -171 89 -273 205 -670 32 -107 73 -247 92 -310 67 -224 203 -696 203 -707 0 -13 -32 4 -69 35 -25 22 -61 46 -78 56 -18 9 -33 21 -33 26 0 5 -16 30 -35 55 -46 61 -81 180 -136 465 -12 63 -32 147 -44 185 -13 39 -42 140 -65 225 -22 85 -63 223 -90 305 -51 154 -94 291 -105 335 -4 14 -28 95 -55 180 -47 148 -173 588 -210 735 -10 39 -30 108 -45 155 -15 47 -42 141 -61 210 -19 69 -46 161 -59 205 -30 104 -60 218 -85 330 -12 50 -37 135 -56 190 -20 55 -39 114 -44 130 -4 17 -15 57 -24 90 -21 78 -20 92 7 101 21 6 21 7 3 14 -17 6 -16 10 19 48 33 38 55 52 55 37z m-421 -110 c17 -20 42 -58 56 -85 14 -28 46 -85 71 -127 96 -161 174 -309 174 -330 0 -12 -92 54 -163 117 -41 36 -117 138 -137 185 -9 22 -31 69 -48 105 -46 99 -59 149 -41 161 28 17 57 9 88 -26z m115 -7 c28 -22 54 -67 106 -173 38 -79 79 -161 93 -182 44 -71 93 -233 70 -233 -17 0 -29 18 -51 72 -13 32 -50 104 -82 160 -32 57 -94 168 -139 247 -44 78 -81 144 -81 146 0 11 55 -13 84 -37z m-239 -5 c12 -52 108 -268 141 -318 38 -57 134 -155 214 -217 53 -41 54 -42 30 -49 -62 -17 -76 -11 -132 54 -66 75 -190 244 -226 307 -14 25 -44 69 -65 98 -41 57 -59 102 -48 120 7 11 48 30 67 31 7 1 15 -11 19 -26z m404 -20 c5 -21 13 -51 16 -68 4 -16 17 -57 31 -90 29 -73 78 -245 71 -251 -2 -3 -10 10 -17 28 -8 18 -27 52 -43 76 -16 24 -52 94 -80 155 -28 62 -59 126 -69 142 -10 17 -18 33 -18 38 0 4 22 7 50 7 49 0 49 -1 59 -37z m-5993 -30 l42 -22 -18 -63 c-10 -35 -30 -166 -45 -293 -14 -126 -30 -255 -35 -285 -40 -243 -50 -315 -44 -332 4 -14 3 -18 -6 -13 -8 5 -11 -9 -10 -52 1 -32 -7 -107 -18 -168 -65 -370 -130 -779 -202 -1278 -11 -77 -27 -178 -34 -225 -17 -104 -39 -247 -67 -437 -20 -142 -46 -305 -94 -604 -14 -90 -23 -176 -20 -191 5 -24 0 -33 -42 -69 -74 -64 -176 -141 -180 -137 -5 4 23 229 47 386 35 223 109 683 124 765 8 44 17 103 21 130 3 28 12 84 20 125 7 41 23 131 35 200 12 69 30 172 40 230 10 58 28 168 40 245 12 77 25 163 30 190 34 183 156 903 195 1145 69 432 87 540 111 653 14 67 28 125 30 129 5 8 21 2 80 -29z m5562 -153 c56 -92 232 -332 278 -380 l33 -35 -6 -88 c-4 -64 -10 -87 -20 -87 -14 0 -148 176 -228 300 -27 41 -62 95 -78 119 -54 79 -77 137 -77 195 0 30 3 62 6 71 6 14 8 14 26 -2 10 -9 40 -51 66 -93z m-5499 -239 c1 -84 4 -157 6 -161 3 -5 -1 -10 -7 -13 -8 -3 -1 -9 15 -16 15 -6 27 -18 28 -28 2 -45 -4 -109 -27 -258 -13 -88 -42 -279 -64 -425 -67 -449 -70 -471 -94 -615 -32 -190 -41 -251 -81 -530 -18 -132 -45 -314 -59 -405 -25 -162 -83 -572 -130 -923 -13 -98 -26 -181 -29 -183 -8 -8 -66 -8 -74 0 -9 9 -4 111 8 166 6 25 14 74 19 110 5 36 19 97 30 135 12 39 25 117 30 175 5 58 14 125 19 150 10 48 22 150 47 405 22 227 42 393 53 445 6 25 10 68 11 95 0 48 15 142 45 290 47 233 51 262 60 485 5 118 37 380 49 398 6 10 32 210 47 352 22 221 27 266 43 380 9 63 20 128 26 144 5 16 11 43 11 60 4 75 16 -92 18 -233z m2862 129 c121 -6 215 -17 265 -29 207 -51 322 -83 349 -95 53 -25 179 -74 220 -87 179 -54 496 -289 650 -481 20 -26 43 -46 49 -45 6 1 10 -8 9 -20 -2 -13 2 -23 7 -23 6 0 10 -7 10 -15 0 -8 6 -12 15 -9 15 6 4 26 -84 151 -29 40 -30 45 -10 29 69 -55 162 -166 193 -231 89 -187 94 -203 102 -355 6 -107 4 -124 -25 -235 -16 -67 -41 -146 -55 -177 -14 -31 -22 -59 -19 -62 4 -3 -1 -14 -10 -24 -9 -9 -44 -58 -76 -108 -62 -94 -144 -180 -162 -168 -6 3 -26 -10 -46 -30 -20 -19 -40 -33 -46 -29 -6 3 -7 2 -4 -4 4 -6 -10 -26 -31 -45 -20 -19 -47 -46 -58 -59 -36 -41 -119 -98 -196 -135 -40 -20 -81 -43 -91 -52 -10 -9 -24 -17 -32 -18 -7 -1 -35 -17 -62 -35 -58 -41 -287 -131 -400 -159 -110 -26 -202 -36 -503 -56 -150 -10 -290 -13 -340 -9 -47 3 -112 9 -145 11 -54 5 -104 16 -263 59 -47 13 -161 54 -247 90 -16 7 -55 20 -85 30 -73 22 -157 63 -200 96 -19 15 -83 54 -143 88 -160 92 -345 217 -407 276 -30 29 -71 63 -91 76 -20 13 -53 46 -74 74 -21 27 -48 59 -59 72 -43 46 -127 236 -146 328 -17 84 -29 101 -31 45 l-1 -45 -8 35 c-12 55 -18 140 -9 140 4 0 10 -10 12 -22 3 -13 2 32 -1 99 -5 116 -3 128 23 210 28 86 31 90 124 181 53 52 125 119 161 150 36 31 88 77 115 103 47 45 204 152 298 203 23 13 101 44 172 71 194 71 306 114 343 130 38 17 200 55 236 55 13 0 46 6 72 14 54 16 173 34 292 46 115 11 236 11 443 0z m2698 -249 c6 -10 20 -29 31 -42 11 -13 49 -65 84 -115 58 -81 65 -98 72 -153 5 -48 3 -75 -11 -116 -17 -50 -21 -53 -57 -59 -101 -16 -176 48 -164 141 3 26 9 119 12 206 4 86 10 157 15 157 4 0 13 -8 18 -19z m-57 -53 c4 -132 -15 -294 -33 -282 -17 10 -46 -6 -57 -32 -17 -35 -15 -90 4 -125 18 -37 116 -101 178 -119 181 -50 355 132 215 225 -25 17 -29 26 -29 68 0 26 4 47 9 47 24 0 114 -204 189 -425 78 -232 96 -315 96 -426 0 -95 -1 -98 -42 -167 -46 -78 -88 -178 -122 -292 -13 -41 -33 -107 -46 -146 -13 -39 -26 -95 -29 -125 -4 -30 -14 -69 -22 -88 -12 -27 -14 -55 -10 -125 12 -178 34 -229 101 -230 30 -1 35 -5 44 -36 6 -19 13 -54 17 -77 9 -60 25 -77 63 -69 26 6 38 20 75 89 44 81 45 82 89 88 55 8 84 23 98 49 18 33 80 214 80 233 0 9 4 17 9 17 9 0 13 -15 124 -450 42 -162 96 -376 122 -475 26 -99 55 -218 65 -265 10 -47 21 -94 25 -106 6 -20 3 -21 -192 -29 -109 -4 -236 -9 -283 -11 -259 -11 -782 -20 -1030 -18 -157 1 -339 -2 -405 -6 -170 -11 -538 -19 -1220 -26 -324 -4 -593 -8 -597 -11 -4 -2 -282 -6 -618 -8 -337 -3 -729 -8 -873 -11 -166 -4 -282 -3 -317 4 -30 6 -59 7 -65 2 -14 -12 -207 -17 -1305 -34 -96 -2 -183 -1 -193 2 -17 4 -18 12 -12 81 6 75 30 262 81 636 14 105 34 258 45 340 11 83 26 193 34 245 8 52 24 165 36 250 25 187 78 548 119 800 16 102 43 275 60 385 17 110 46 288 63 395 l33 195 109 6 c61 4 313 10 560 14 l450 7 -96 -64 c-52 -36 -115 -74 -140 -86 -106 -52 -311 -262 -360 -369 -16 -34 -40 -106 -54 -160 -14 -53 -32 -104 -39 -112 -22 -26 -33 -106 -35 -266 -3 -145 20 -379 39 -415 20 -35 23 29 7 149 -17 132 -23 456 -8 447 4 -3 11 -46 15 -97 8 -105 33 -180 104 -308 26 -47 54 -99 62 -115 28 -55 151 -185 256 -271 141 -115 260 -193 410 -271 67 -34 133 -69 146 -78 20 -12 92 -46 243 -112 110 -48 222 -86 325 -109 41 -10 120 -31 175 -47 86 -25 119 -29 235 -31 74 -1 180 1 235 5 55 4 183 13 285 18 102 6 205 16 230 21 82 18 361 110 393 129 18 11 40 20 51 20 26 0 217 101 230 122 6 10 14 18 17 18 11 0 139 80 194 120 104 76 297 265 357 347 57 80 115 198 152 311 10 28 19 52 21 52 13 0 -22 -429 -41 -505 -42 -169 -39 -163 -143 -265 -121 -118 -258 -220 -426 -316 -173 -99 -411 -215 -510 -248 -44 -15 -93 -33 -110 -40 -82 -37 -289 -106 -337 -112 -29 -3 -84 -15 -123 -25 -38 -10 -83 -20 -98 -23 -55 -9 -481 13 -567 30 -47 9 -102 18 -122 20 -20 1 -56 8 -79 14 -24 7 -63 15 -88 20 -26 4 -91 20 -146 34 -55 14 -111 26 -125 26 -24 -1 -24 -1 -7 -15 11 -7 38 -17 60 -20 23 -4 78 -17 122 -30 124 -36 409 -88 575 -105 129 -13 346 -6 450 15 222 43 266 56 570 168 226 83 343 141 635 313 115 68 305 220 387 309 60 65 66 77 91 165 33 118 41 178 63 454 15 195 15 221 1 230 -11 9 -14 26 -10 81 11 147 -26 312 -105 474 -27 55 -57 95 -121 160 -75 75 -296 249 -443 349 -26 18 -49 36 -52 41 -3 5 38 9 92 11 53 1 122 3 152 4 30 2 289 6 575 11 286 4 521 8 522 9 1 0 49 2 107 4 l106 3 2 -53z m605 -52 c-2 -6 -11 3 -19 19 -8 17 -13 36 -10 44 3 9 10 1 19 -19 7 -19 12 -38 10 -44z m-151 31 c3 -5 41 -81 74 -147 49 -98 106 -281 125 -400 21 -134 38 -371 32 -465 -4 -69 -11 -95 -54 -190 -79 -174 -98 -243 -113 -409 -11 -131 -2 -155 65 -188 65 -32 94 -19 119 52 16 45 21 91 24 250 3 112 8 182 12 165 4 -16 17 -75 29 -130 23 -108 77 -269 95 -284 6 -5 60 -16 121 -25 60 -9 114 -21 119 -26 13 -13 12 -13 -129 -14 -104 -1 -125 -4 -149 -21 -71 -50 -158 -82 -231 -86 -84 -4 -203 24 -221 52 -13 22 -4 130 16 187 11 31 32 99 46 152 36 131 68 206 140 331 52 89 64 120 75 184 40 249 -62 647 -242 943 -22 35 -39 66 -39 67 0 11 80 13 86 2z m109 -51 c57 -102 84 -179 125 -362 43 -186 70 -383 70 -508 0 -105 -20 -308 -31 -321 -9 -9 -15 70 -12 140 6 103 1 358 -7 414 -31 210 -43 267 -78 371 -40 119 -105 265 -122 275 -6 3 -10 17 -10 31 0 43 28 26 65 -40z m-120 -150 c30 -61 61 -130 70 -153 8 -24 22 -62 31 -85 43 -115 90 -426 77 -508 l-9 -55 -13 70 c-24 140 -143 491 -221 655 -40 85 -49 113 -46 145 2 22 4 51 5 64 l1 24 25 -23 c14 -13 50 -74 80 -134z m-465 -105 c0 -36 36 -89 80 -119 29 -19 45 -23 99 -20 73 3 95 18 106 74 3 19 9 34 12 34 18 0 43 -37 43 -62 0 -43 -25 -73 -80 -97 -44 -19 -57 -20 -111 -12 -111 18 -199 89 -199 161 0 36 20 70 41 70 5 0 9 -13 9 -29z m-4640 6 c0 -2 -10 -12 -22 -23 l-23 -19 19 23 c18 21 26 27 26 19z m-993 -79 c-3 -8 -6 -5 -6 6 -1 11 2 17 5 13 3 -3 4 -12 1 -19z m6517 -530 c25 -84 62 -217 81 -296 20 -79 47 -171 61 -205 13 -34 38 -116 55 -182 16 -66 32 -129 36 -139 5 -17 1 -18 -34 -13 -22 4 -69 9 -104 13 -40 3 -68 11 -76 21 -37 47 -113 364 -113 468 0 33 5 91 10 130 12 80 15 302 6 390 l-7 60 19 -47 c11 -25 40 -115 66 -200z m-5847 40 c-3 -8 -6 -5 -6 6 -1 11 2 17 5 13 3 -3 4 -12 1 -19z m-741 -70 c-3 -40 -11 -98 -16 -128 -19 -104 -83 -545 -100 -690 -6 -52 -17 -147 -25 -210 -13 -106 -45 -352 -65 -495 -5 -33 -18 -132 -30 -220 -11 -88 -27 -200 -36 -250 -8 -49 -19 -117 -24 -150 -5 -33 -15 -76 -21 -95 -6 -19 -14 -68 -18 -109 -4 -51 -10 -76 -20 -79 -12 -4 -13 7 -8 64 11 115 51 400 93 654 14 85 29 187 34 225 5 39 33 232 64 430 31 198 65 423 76 500 12 77 27 181 35 230 8 50 24 159 36 243 23 160 36 202 25 80z m6399 -355 c-2 -43 -16 -130 -30 -193 -15 -63 -34 -153 -44 -199 -17 -83 -18 -84 -34 -60 -33 46 -16 245 31 379 32 90 61 150 71 150 6 0 9 -30 6 -77z m15 -372 c-13 -76 -34 -121 -57 -121 -13 0 -15 8 -9 51 7 48 46 222 63 279 13 42 15 -137 3 -209z m-4959 -183 c20 -17 18 -16 -16 3 -22 12 -47 29 -55 37 -20 20 37 -13 71 -40z m5447 -165 c80 -257 225 -771 256 -913 23 -102 36 -148 57 -196 10 -23 21 -60 25 -82 l6 -40 -136 2 -136 1 -9 30 c-6 17 -35 129 -66 250 -31 121 -63 240 -71 265 -17 57 -152 598 -165 665 -5 28 -12 73 -15 100 -3 28 -10 58 -15 67 -13 24 2 27 116 22 l100 -3 53 -168z m-333 110 c-11 -76 -73 -246 -96 -265 -31 -26 -61 -22 -89 13 -32 40 -70 59 -115 59 -48 0 -91 -24 -110 -60 -19 -36 -49 -39 -70 -7 -18 28 -40 214 -31 253 5 17 10 23 15 16 10 -17 77 -38 164 -52 66 -11 85 -10 142 4 74 18 169 58 179 75 14 22 18 10 11 -36z m-245 -243 c35 -19 34 -58 -3 -119 -19 -31 -38 -66 -41 -78 -8 -25 -35 -38 -49 -24 -5 5 -13 31 -18 58 -4 26 -12 70 -17 96 -8 38 -7 51 5 62 16 17 95 20 123 5z m954 -1155 c15 -19 40 -42 56 -50 22 -11 27 -20 23 -37 -5 -21 -5 -22 8 -5 13 16 20 17 69 6 l55 -13 -40 -7 c-22 -5 -314 -15 -649 -24 -334 -8 -612 -18 -617 -21 -5 -3 -280 -7 -611 -9 -332 -3 -625 -9 -653 -14 -69 -14 -310 -20 -1015 -27 -463 -4 -632 -9 -719 -21 -94 -13 -187 -14 -547 -9 -282 4 -435 2 -439 -4 -4 -6 -87 -10 -213 -10 -114 0 -252 -5 -307 -10 -55 -6 -530 -13 -1055 -16 -648 -3 -993 -9 -1073 -17 -72 -8 -116 -9 -114 -3 2 5 39 38 83 73 43 34 94 75 113 90 l34 28 396 2 c489 4 741 9 894 18 109 6 117 5 118 -12 1 -16 2 -16 6 0 4 15 19 17 131 18 70 0 219 2 332 4 511 8 1028 15 1415 20 231 3 564 8 740 12 317 7 680 9 805 3 58 -2 249 6 340 15 19 2 314 6 655 9 341 3 703 10 805 15 102 6 352 13 555 16 204 4 372 9 374 11 10 9 20 2 45 -31z m101 -6 c5 -5 -5 -4 -23 2 -17 6 -32 13 -32 16 0 7 43 -8 55 -18z m95 -153 c0 -17 -158 -648 -204 -815 -19 -69 -41 -130 -50 -136 -29 -22 -595 -29 -724 -9 -31 5 -33 7 -27 37 14 70 57 244 70 282 8 22 19 74 25 115 7 41 16 97 21 123 15 78 11 124 -15 175 -30 59 -47 74 -121 107 -52 23 -69 26 -125 21 -61 -5 -156 -8 -695 -21 -121 -3 -256 -7 -300 -10 -44 -3 -186 -7 -315 -10 -129 -3 -289 -7 -355 -10 -66 -3 -232 -7 -370 -10 -137 -4 -281 -8 -320 -10 -38 -2 -205 -7 -370 -10 -165 -3 -356 -8 -425 -10 -69 -2 -287 -7 -485 -10 -198 -3 -427 -8 -510 -10 -82 -2 -348 -7 -590 -10 -242 -3 -476 -8 -520 -10 -44 -3 -210 -5 -370 -6 -306 -1 -342 -6 -364 -47 -31 -59 10 -345 79 -549 35 -103 70 -226 66 -231 -2 -1 -100 -4 -217 -7 -118 -2 -291 -7 -386 -11 l-171 -7 -16 32 c-9 17 -35 82 -57 144 -22 61 -55 150 -73 197 -50 128 -176 499 -176 520 0 23 65 28 495 35 176 3 466 10 645 15 179 6 481 10 671 10 191 0 368 4 395 9 84 16 950 31 1244 22 69 -2 154 -1 190 2 36 3 112 11 170 16 58 6 375 15 705 21 330 6 764 16 965 22 201 5 590 11 865 13 323 1 528 6 580 14 51 8 269 13 603 16 288 2 526 6 530 9 11 11 32 6 32 -8z m-1067 -149 c4 -7 6 -73 4 -147 -4 -110 -10 -151 -32 -225 -15 -49 -36 -118 -45 -153 -10 -35 -26 -69 -36 -76 -40 -30 -284 -42 -1024 -52 -118 -2 -388 -8 -600 -13 -212 -5 -538 -12 -725 -16 -187 -3 -560 -10 -830 -15 -269 -6 -629 -11 -800 -12 -170 0 -294 -4 -275 -8 31 -7 29 -7 -20 -9 -41 0 -51 2 -40 10 11 8 0 9 -40 5 -30 -3 -137 -6 -237 -6 -101 0 -183 -3 -183 -7 0 -5 55 -7 122 -6 97 1 111 -1 68 -7 -30 -4 -107 -8 -170 -7 -63 0 -98 2 -77 4 20 2 37 9 37 14 0 6 -149 8 -397 7 -219 -2 -411 0 -427 3 -31 6 -24 -8 -148 294 -27 67 -38 264 -16 283 17 14 266 28 658 37 140 3 300 7 355 10 96 4 311 9 965 20 168 3 352 8 410 10 58 3 258 7 445 11 187 3 401 7 475 9 74 2 275 6 445 9 171 4 348 9 395 11 47 3 272 8 500 11 l415 7 -73 -69 c-50 -47 -78 -82 -87 -109 -11 -32 -11 -41 -1 -43 8 -2 18 -34 26 -80 26 -167 22 -155 65 -177 59 -30 250 -28 317 2 58 27 100 85 103 145 1 24 4 50 7 58 3 8 11 47 18 87 13 80 5 128 -29 164 -11 12 -20 24 -18 25 1 1 99 5 217 9 118 4 217 9 220 12 8 7 54 -8 63 -20z m-673 -64 c6 -150 6 -147 -12 -151 -14 -3 -18 3 -18 27 0 17 -5 64 -11 105 -8 55 -16 76 -28 79 -9 3 3 5 25 6 l41 1 3 -67z m801 -24 c10 -21 19 -51 19 -67 0 -33 -39 -292 -45 -302 -2 -4 -20 -69 -39 -144 -19 -76 -37 -140 -40 -143 -8 -9 -26 8 -52 49 -25 39 -25 42 -14 110 7 39 25 110 40 157 36 112 49 184 51 301 1 52 4 98 6 102 8 15 54 -26 74 -63z m-713 -31 c-3 -88 -4 -93 -25 -96 -20 -3 -23 1 -23 35 -1 21 -3 64 -6 96 l-6 57 31 0 32 0 -3 -92z m-163 15 c3 -38 8 -82 11 -99 4 -27 1 -33 -18 -37 -13 -4 -53 -29 -88 -57 -36 -27 -68 -50 -71 -50 -4 0 -12 30 -18 68 -7 37 -14 77 -17 89 -8 41 118 153 172 153 20 0 23 -6 29 -67z m253 35 c15 -15 15 -76 1 -134 -12 -48 -15 -50 -42 -30 -15 11 -18 26 -16 78 1 34 4 71 7 81 5 20 32 23 50 5z m-5464 -54 c13 -5 16 -21 16 -76 0 -114 19 -206 62 -303 22 -49 53 -127 70 -172 l30 -83 -29 -40 c-40 -53 -81 -86 -88 -68 -90 245 -141 464 -146 627 -2 70 0 76 25 98 29 25 35 26 60 17z m5425 -160 c26 -34 26 -57 0 -104 -29 -52 -63 -68 -170 -81 -76 -9 -104 -9 -149 2 -50 13 -55 17 -58 44 -2 26 6 36 59 79 81 64 136 85 226 86 66 0 73 -2 92 -26z m1466 -237 c-14 -72 -50 -176 -41 -117 6 40 49 200 52 197 2 -2 -3 -38 -11 -80z m-1028 -159 c6 -13 27 -43 47 -66 35 -43 47 -70 25 -56 -6 3 -66 1 -133 -5 -436 -40 -734 -50 -1801 -57 -187 -1 -619 -7 -960 -13 -1148 -19 -1997 -32 -2474 -37 l-473 -5 30 38 c82 102 100 113 160 97 15 -4 22 -14 23 -33 1 -25 2 -25 8 4 6 30 7 30 61 25 63 -5 44 -5 335 9 121 5 243 7 270 4 28 -3 122 0 210 6 88 6 302 13 475 16 173 3 376 8 450 10 74 2 288 7 475 11 187 3 426 9 531 13 108 5 222 4 260 -1 104 -14 1000 12 1094 31 35 8 148 11 305 11 138 -1 376 1 530 4 259 5 276 4 220 -9 -34 -9 -125 -16 -213 -18 -86 -2 -151 -8 -150 -13 8 -28 441 6 522 42 17 7 61 13 97 14 59 0 67 -2 76 -22z"
       id="path12"
       style="fill:#a40000;fill-opacity:1;stroke-width:0;stroke-miterlimit:4;stroke-dasharray:none" />
    <path
       d="M4000 5169 c-175 -20 -455 -96 -610 -166 -30 -14 -84 -36 -120 -49 -87 -33 -271 -131 -356 -190 -89 -63 -220 -192 -270 -269 -26 -40 -46 -60 -59 -60 -33 0 -89 -132 -126 -302 -21 -92 -9 -255 26 -363 71 -220 230 -449 387 -557 181 -125 518 -285 728 -345 101 -30 274 -67 340 -73 36 -3 92 -10 125 -16 92 -15 494 -22 510 -9 8 6 45 13 83 15 110 7 320 67 470 135 23 11 46 20 50 20 5 0 62 29 128 65 65 36 125 65 132 65 34 0 253 147 341 228 51 48 98 88 102 90 22 9 134 162 168 231 56 110 72 172 72 276 0 142 -29 258 -97 381 -20 38 -55 103 -77 144 -22 41 -51 91 -65 110 -52 71 -157 183 -206 219 -117 86 -283 194 -311 204 -16 6 -48 23 -70 38 -29 21 -51 28 -83 27 -23 0 -48 4 -55 9 -18 15 -102 40 -197 58 -47 9 -108 25 -136 35 -29 10 -98 24 -155 29 -57 6 -154 15 -215 21 -116 12 -343 11 -454 -1z m463 -24 c226 -22 295 -33 370 -60 38 -14 85 -25 105 -25 20 0 66 -9 102 -20 36 -11 97 -29 137 -40 64 -18 254 -111 293 -145 8 -7 63 -45 122 -84 135 -91 261 -228 328 -355 15 -28 50 -95 79 -149 29 -54 57 -112 62 -130 34 -114 40 -287 13 -377 -37 -123 -139 -286 -218 -349 -19 -16 -65 -57 -101 -92 -94 -91 -191 -154 -390 -252 -38 -19 -104 -51 -145 -72 -84 -42 -101 -50 -215 -94 -155 -59 -269 -83 -409 -87 -82 -3 -132 -8 -137 -15 -15 -25 -470 4 -634 40 -208 45 -436 130 -660 244 -301 154 -353 197 -533 437 -16 22 -32 51 -99 183 -8 15 -25 70 -39 123 -34 137 -32 285 8 399 33 98 71 171 91 180 12 6 38 33 57 60 53 75 206 224 290 281 117 79 203 123 440 220 192 78 312 115 525 160 151 32 353 39 558 19z"
       id="path14"
       style="fill:#a40000;fill-opacity:1;stroke-width:0;stroke-miterlimit:4;stroke-dasharray:none" />
    <path
       d="M4130 4769 c-142 -13 -368 -60 -485 -101 -145 -51 -200 -82 -259 -150 -21 -23 -51 -56 -66 -73 -37 -42 -133 -185 -149 -223 -10 -25 -12 -67 -6 -179 7 -146 7 -149 48 -232 22 -46 51 -97 65 -113 43 -51 132 -109 281 -186 79 -40 157 -82 173 -94 36 -25 217 -69 318 -77 41 -3 111 -3 155 1 44 4 145 12 225 18 256 19 463 85 635 202 120 82 171 139 234 263 107 211 109 365 9 558 -33 64 -53 88 -107 131 -140 111 -340 200 -516 230 -49 9 -101 18 -115 20 -49 10 -357 13 -440 5z m395 -33 c236 -15 485 -108 662 -248 53 -42 69 -62 102 -131 41 -87 71 -201 71 -264 -1 -47 -57 -213 -92 -275 -66 -111 -140 -182 -278 -266 -96 -59 -132 -74 -251 -108 -134 -37 -207 -49 -414 -65 -205 -16 -309 -13 -407 12 -46 12 -96 23 -113 26 -16 3 -48 18 -70 32 -22 14 -100 56 -174 93 -129 65 -225 129 -264 173 -10 11 -35 56 -57 100 -38 79 -39 82 -45 230 l-7 150 54 88 c75 122 212 268 284 302 30 14 67 28 82 30 15 2 68 20 117 39 96 36 278 71 424 81 47 3 86 7 88 8 3 4 192 -1 288 -7z"
       id="path16"
       style="fill:#a40000;fill-opacity:1;stroke-width:0;stroke-miterlimit:4;stroke-dasharray:none" />
    <path
       d="M4065 4304 c-38 -20 -93 -56 -122 -80 -29 -25 -54 -40 -58 -34 -10 16 -19 12 -42 -23 -28 -40 -30 -105 -7 -204 26 -111 59 -148 174 -193 116 -46 393 -35 500 20 34 18 100 76 100 89 0 3 7 49 15 101 8 52 15 112 15 133 0 34 -2 38 -20 32 -16 -5 -20 -2 -20 18 0 36 -54 103 -102 128 -48 25 -127 37 -268 44 -93 4 -97 3 -165 -31z m319 -13 c99 -13 149 -43 178 -107 26 -60 17 -108 -32 -177 -39 -54 -91 -86 -165 -102 -17 -3 -7 3 21 15 105 42 165 123 150 204 -5 24 -20 47 -52 75 -66 58 -140 84 -247 87 -92 3 -117 -1 -117 -20 0 -6 -21 -23 -48 -38 -104 -59 -137 -139 -93 -226 41 -81 91 -102 243 -103 l113 -1 -114 -14 c-132 -16 -168 -10 -232 39 -60 45 -79 75 -85 133 -10 78 32 140 135 202 89 52 152 58 345 33z m-186 -60 c-13 -21 -28 -19 -28 5 0 8 9 14 20 14 17 0 19 -3 8 -19z m166 -1 c82 -26 146 -81 146 -127 0 -46 -39 -94 -100 -125 -30 -15 -66 -29 -80 -33 -14 -3 0 6 30 20 30 14 65 35 77 47 60 56 28 150 -65 194 -30 14 -60 23 -67 20 -8 -3 -19 2 -25 10 -17 20 3 19 84 -6z m-286 -47 c-38 -42 -51 -71 -44 -107 7 -37 68 -113 100 -126 21 -9 21 -9 -1 -9 -12 -1 -34 4 -50 10 -103 39 -119 168 -28 231 51 35 55 35 23 1z m199 -24 c12 -24 22 -58 23 -75 0 -27 -4 -32 -30 -37 -46 -10 -57 0 -64 52 -6 48 -2 75 17 99 16 20 30 10 54 -39z m-102 -41 c4 -44 13 -80 22 -90 22 -25 94 -24 124 1 23 18 23 19 8 90 -16 71 -16 71 5 65 68 -21 114 -73 101 -114 -22 -68 -240 -123 -306 -77 -33 24 -59 68 -59 103 0 37 49 88 91 93 4 1 10 -32 14 -71z m-300 -31 c0 -74 3 -88 27 -124 15 -23 53 -59 85 -80 l58 -38 120 1 c207 1 330 45 394 142 41 60 48 52 32 -35 -20 -108 -75 -148 -235 -169 -203 -27 -383 7 -450 87 -41 49 -71 232 -46 280 6 10 12 19 13 19 2 0 3 -37 2 -83z"
       id="path18"
       style="fill:#a40000;fill-opacity:1;stroke-width:0;stroke-miterlimit:4;stroke-dasharray:none" />
    <path
       d="M6110 4380 c0 -5 7 -10 16 -10 8 0 12 5 9 10 -3 6 -10 10 -16 10 -5 0 -9 -4 -9 -10z"
       id="path20"
       style="fill:#a40000;fill-opacity:1;stroke-width:0;stroke-miterlimit:4;stroke-dasharray:none" />
    <path
       d="M6130 4346 c0 -8 5 -18 10 -21 6 -3 10 3 10 14 0 12 -4 21 -10 21 -5 0 -10 -6 -10 -14z"
       id="path22"
       style="fill:#a40000;fill-opacity:1;stroke-width:0;stroke-miterlimit:4;stroke-dasharray:none" />
    <path
       d="M6197 4153 c13 -93 6 -317 -12 -382 -21 -74 -104 -269 -129 -303 -11 -15 -17 -31 -13 -34 9 -10 -27 -59 -114 -156 -29 -32 -47 -58 -41 -58 6 0 12 3 14 8 2 4 20 20 40 35 39 29 121 140 121 164 0 7 4 13 9 13 4 0 7 3 7 8 -3 20 2 32 14 30 6 -2 11 3 9 11 -2 7 4 21 12 30 18 20 66 125 66 145 0 8 4 17 9 20 11 7 38 128 46 206 5 42 4 51 -5 40 -8 -11 -9 1 -5 50 3 36 5 76 4 90 0 14 -2 40 -3 58 0 17 -4 32 -8 32 -5 0 -8 11 -8 25 0 14 -5 25 -11 25 -7 0 -8 -18 -2 -57z"
       id="path24"
       style="fill:#a40000;fill-opacity:1;stroke-width:0;stroke-miterlimit:4;stroke-dasharray:none" />
    <path
       d="M2104 3386 c-85 -37 -392 -393 -449 -521 -12 -27 -43 -85 -68 -127 -49 -83 -64 -118 -49 -118 9 0 65 88 150 235 22 39 49 79 61 89 21 19 21 19 21 -8 0 -30 26 -180 41 -238 7 -28 16 -39 36 -44 14 -4 52 -24 84 -46 79 -52 99 -58 190 -59 86 -1 122 12 151 51 16 22 19 49 23 196 5 189 2 199 -66 250 -84 63 -162 71 -255 25 -32 -16 -83 -32 -113 -36 l-54 -7 22 30 c28 40 191 221 224 249 48 41 76 54 104 51 23 -2 34 -15 63 -68 56 -102 113 -181 182 -251 66 -67 204 -186 260 -224 42 -28 192 -104 380 -194 161 -76 230 -120 247 -157 16 -37 14 -129 -4 -144 -8 -7 -12 -16 -9 -21 12 -20 -50 -79 -114 -110 -73 -34 -150 -53 -286 -68 -50 -6 -190 -23 -311 -37 -166 -20 -244 -25 -317 -20 -53 3 -103 9 -111 12 -21 8 -27 28 -34 100 l-5 60 153 27 c85 14 199 35 254 45 55 11 159 25 230 32 379 35 487 53 493 85 3 14 -1 17 -20 12 -120 -28 -181 -37 -293 -47 -192 -17 -447 -49 -507 -64 -29 -8 -78 -17 -108 -21 -30 -4 -90 -13 -133 -20 -72 -12 -81 -11 -115 6 -20 10 -83 33 -140 50 -84 26 -105 36 -117 58 -24 47 -83 91 -116 87 -16 -2 -29 0 -29 4 0 4 -15 31 -32 59 -26 39 -39 51 -59 51 -38 0 -74 -33 -106 -98 -25 -51 -28 -67 -28 -162 0 -80 5 -118 20 -159 18 -49 47 -76 67 -65 9 6 238 -62 296 -88 62 -27 230 -31 279 -6 27 13 45 14 125 5 97 -10 218 -1 378 29 41 8 133 19 205 25 199 17 229 21 310 46 79 25 137 58 181 105 44 45 58 85 55 153 -5 112 -46 150 -280 262 -354 169 -372 180 -517 306 -156 134 -221 213 -288 346 -49 96 -84 116 -152 87z m62 -337 c24 -11 57 -36 75 -56 55 -63 24 -121 -86 -162 -108 -40 -208 -22 -263 49 -37 48 -37 68 2 104 89 81 190 105 272 65z m-336 -90 c0 -6 -4 -7 -10 -4 -5 3 -10 11 -10 16 0 6 5 7 10 4 6 -3 10 -11 10 -16z m9 -129 c15 -90 20 -140 12 -140 -4 0 -12 37 -19 83 -7 45 -15 93 -18 107 -5 18 -4 22 5 15 6 -6 15 -35 20 -65z m421 -94 c0 -84 -3 -108 -17 -125 -24 -29 -80 -41 -156 -31 -68 8 -103 23 -155 67 -29 25 -35 38 -44 101 -6 39 -9 74 -7 77 3 2 27 -7 54 -20 75 -38 190 -31 282 19 15 8 31 15 36 16 4 0 7 -47 7 -104z m-664 -216 c15 -22 25 -42 23 -43 -2 -1 -24 -16 -49 -33 -25 -17 -59 -39 -77 -47 l-31 -17 4 36 c8 63 58 144 90 144 7 0 26 -18 40 -40z m139 -102 c14 -6 25 -14 25 -17 0 -4 -32 -33 -70 -66 -39 -33 -74 -71 -77 -85 -3 -13 1 -46 11 -73 10 -27 16 -50 14 -52 -2 -1 -13 1 -24 5 -23 9 -54 83 -54 128 0 16 23 48 72 98 39 41 73 74 74 74 2 0 15 -5 29 -12z m-249 -103 c-20 -43 -21 -44 -24 -18 -3 19 3 33 18 45 12 10 23 18 24 18 2 0 -7 -20 -18 -45z m329 21 c18 -8 76 -26 128 -41 82 -24 93 -29 92 -48 -2 -21 -6 -22 -111 -22 -100 1 -184 8 -225 21 -14 4 -36 -22 -26 -32 8 -9 204 -28 290 -28 110 -1 110 -1 111 -90 1 -48 -11 -53 -124 -55 -64 -1 -89 4 -171 36 l-97 38 -16 51 c-9 28 -16 60 -16 70 0 19 101 114 121 114 5 0 25 -6 44 -14z"
       id="path26"
       style="fill:#a40000;fill-opacity:1;stroke-width:0;stroke-miterlimit:4;stroke-dasharray:none" />
  </g>
</svg>
